<?xml version="1.0" encoding="utf-8"?>
<!-- Generator: Adobe Illustrator 16.0.3, SVG Export Plug-In . SVG Version: 6.00 Build 0)  -->
<!DOCTYPE svg PUBLIC "-//W3C//DTD SVG 1.1//EN" "http://www.w3.org/Graphics/SVG/1.1/DTD/svg11.dtd">
<svg version="1.1" id="Layer_1" xmlns="http://www.w3.org/2000/svg" xmlns:xlink="http://www.w3.org/1999/xlink" x="0px" y="0px"
	 width="30px" height="30px" viewBox="0 0 30 30" enable-background="new 0 0 30 30" xml:space="preserve">
<g>
	<path d="M10.519,15.004c0-1.625,0.167-2.933,0.501-3.923s0.832-1.755,1.491-2.292C13.17,8.251,14,7.982,15,7.982
		c0.737,0,1.385,0.148,1.94,0.445s1.016,0.725,1.378,1.285c0.363,0.559,0.646,1.241,0.854,2.043
		c0.206,0.803,0.309,1.886,0.309,3.249c0,1.613-0.165,2.914-0.496,3.905c-0.332,0.991-0.826,1.757-1.486,2.297
		c-0.659,0.54-1.492,0.812-2.498,0.812c-1.325,0-2.366-0.476-3.122-1.426C10.972,19.448,10.519,17.586,10.519,15.004z
		 M12.253,15.004c0,2.256,0.264,3.757,0.792,4.505c0.528,0.746,1.18,1.119,1.955,1.119c0.775,0,1.426-0.375,1.955-1.125
		c0.527-0.75,0.791-2.25,0.791-4.5c0-2.262-0.264-3.766-0.791-4.509c-0.529-0.744-1.187-1.116-1.974-1.116
		c-0.775,0-1.394,0.328-1.856,0.984C12.543,11.201,12.253,12.748,12.253,15.004z"/>
</g>
</svg>
